<?xml version="1.0" encoding="UTF-8" standalone="no"?>
<!-- Created with Inkscape (http://www.inkscape.org/) -->

<svg
   xmlns:dc="http://purl.org/dc/elements/1.1/"
   xmlns:cc="http://creativecommons.org/ns#"
   xmlns:rdf="http://www.w3.org/1999/02/22-rdf-syntax-ns#"
   xmlns:svg="http://www.w3.org/2000/svg"
   xmlns="http://www.w3.org/2000/svg"
   version="1.1"
   width="639.10834"
   height="188.74391"
   id="svg2">
  <defs
     id="defs4" />
  <metadata
     id="metadata7">
    <rdf:RDF>
      <cc:Work
         rdf:about="">
        <dc:format>image/svg+xml</dc:format>
        <dc:type
           rdf:resource="http://purl.org/dc/dcmitype/StillImage" />
        <dc:title></dc:title>
      </cc:Work>
    </rdf:RDF>
  </metadata>
  <g
     transform="translate(153.83292,60.637087)"
     id="layer1">
    <path
       d="M 296.98486,438.18943 96.147116,407.1473 -43.282635,554.99436 -75.822084,354.39377 -259.51916,267.47545 -78.791901,174.5396 -52.893188,-27.02594 91.341851,116.13714 291.04521,78.481105 199.46011,259.8966 z"
       id="path3755"
       style="fill:#3e5e60;fill-opacity:0;stroke:none" />
    <path
       d="m 138.95721,181.7805 c -194.000304,-3.42736 -353.01651,-6.52026 -353.36936,-6.87312 -0.35286,-0.35286 4.06151,-33.65741 9.80969,-74.01014 l 10.45125,-73.368606 40.77526,-23.7433497 c 22.42639,-13.058841 42.3824,-24.4232813 44.34669,-25.2543093 1.96428,-0.831028 43.107141,-8.670638 91.428566,-17.421356 l 87.85715,-15.910399 89.285714,-1.361344 89.28572,-1.361345 92.14285,12.754102 92.14286,12.754102 50.71429,31.05793229 C 511.72074,16.12453 534.6432,30.196847 534.76667,30.314481 c 0.12343,0.117629 -0.98286,32.678166 -2.45851,72.356739 -1.47565,39.67858 -2.70167,75.19643 -2.72449,78.92858 l -0.0415,6.78571 -18.92857,-0.18671 c -10.41071,-0.10272 -177.65609,-2.99093 -371.65639,-6.4183 l 0,0 z"
       id="path3893"
       style="fill:#4a684a;fill-opacity:1;stroke:none" />
  </g>
</svg>
